<svg width="143" height="42" viewBox="0 0 143 42" fill="none" xmlns="http://www.w3.org/2000/svg">
<rect x="0.534614" y="0.367378" width="141.492" height="41.2651" rx="3.3064" fill="black" stroke="#A6A6A6" stroke-width="0.734756"/>
<path d="M39.0061 20.3175C38.9827 17.5299 41.2876 16.175 41.3888 16.1127C40.0807 14.2128 38.0561 13.9481 37.3476 13.9247C35.6501 13.7456 33.9993 14.9447 33.135 14.9447C32.2552 14.9447 30.9159 13.9481 29.4831 13.9714C27.6377 14.0026 25.9013 15.0693 24.9591 16.7356C23.0047 20.1228 24.4608 25.1062 26.3374 27.8471C27.2795 29.1864 28.3697 30.6892 29.8102 30.6347C31.2118 30.5802 31.7412 29.7392 33.4309 29.7392C35.1128 29.7392 35.6034 30.6347 37.0673 30.6035C38.5778 30.5802 39.52 29.2564 40.431 27.9016C41.5134 26.3676 41.9494 24.8492 41.965 24.7714C41.9261 24.7558 39.0373 23.6501 39.0061 20.3175Z" fill="white"/>
<path d="M36.2425 12.1258C36.9977 11.1836 37.5117 9.89884 37.3715 8.5907C36.2814 8.63742 34.9109 9.34599 34.1245 10.2726C33.4315 11.0902 32.8086 12.4217 32.9643 13.6753C34.1946 13.7688 35.456 13.0524 36.2425 12.1258Z" fill="white"/>
<path d="M59.3446 30.4398H57.3824L56.3079 27.0604H52.5703L51.5503 30.4398H49.6426L53.3412 18.9391H55.6304L59.3446 30.4398ZM55.9886 25.6433L55.0153 22.6455C54.9141 22.334 54.7194 21.6176 54.4391 20.4808H54.4002C54.2834 20.9713 54.1043 21.6955 53.8551 22.6455L52.8974 25.6433H55.9886Z" fill="white"/>
<path d="M68.8523 26.196C68.8523 27.6053 68.4708 28.7188 67.6999 29.5364C67.0147 30.2683 66.1581 30.6265 65.1459 30.6265C64.048 30.6265 63.2615 30.2372 62.7788 29.4507V33.8034H60.9334V24.8722C60.9334 23.9846 60.91 23.0813 60.8633 22.147H62.4829L62.5841 23.4629H62.6153C63.2304 22.474 64.1648 21.9756 65.4106 21.9756C66.3917 21.9756 67.2015 22.365 67.8556 23.1358C68.5253 23.9145 68.8523 24.9268 68.8523 26.196ZM66.9757 26.2583C66.9757 25.4485 66.7966 24.7866 66.4307 24.2649C66.0336 23.7198 65.4963 23.4473 64.8266 23.4473C64.375 23.4473 63.9623 23.603 63.5886 23.8989C63.2226 24.2026 62.9734 24.5919 62.8644 25.0825C62.8099 25.3083 62.7788 25.4952 62.7788 25.6431V27.0291C62.7788 27.6287 62.9657 28.1426 63.3316 28.5553C63.6976 28.968 64.1804 29.1782 64.7721 29.1782C65.4651 29.1782 66.0024 28.9057 66.3917 28.3762C66.7811 27.8389 66.9757 27.1381 66.9757 26.2583Z" fill="white"/>
<path d="M78.3828 26.196C78.3828 27.6053 78.0013 28.7188 77.2304 29.5364C76.5452 30.2683 75.6887 30.6265 74.6764 30.6265C73.5785 30.6265 72.7921 30.2372 72.3093 29.4507V33.8034H70.4639V24.8722C70.4639 23.9846 70.4405 23.0813 70.3938 22.147H72.0134L72.1146 23.4629H72.1458C72.7609 22.474 73.6953 21.9756 74.9412 21.9756C75.9223 21.9756 76.7321 22.365 77.3861 23.1358C78.0558 23.9145 78.3828 24.9268 78.3828 26.196ZM76.5063 26.2583C76.5063 25.4485 76.3272 24.7866 75.9612 24.2649C75.5641 23.7198 75.0268 23.4473 74.3572 23.4473C73.9055 23.4473 73.4929 23.603 73.1191 23.8989C72.7531 24.2026 72.5117 24.5919 72.3949 25.0825C72.3404 25.3083 72.3093 25.4952 72.3093 25.6431V27.0291C72.3093 27.6287 72.4962 28.1426 72.8621 28.5553C73.2281 28.968 73.7109 29.1782 74.3027 29.1782C74.9957 29.1782 75.5407 28.9057 75.9223 28.3762C76.3194 27.8389 76.5063 27.1381 76.5063 26.2583Z" fill="white"/>
<path d="M89.0502 27.2164C89.0502 28.1975 88.7076 28.9917 88.0302 29.6069C87.2827 30.2765 86.2393 30.6113 84.9 30.6113C83.6619 30.6113 82.673 30.3699 81.9255 29.895L82.3538 28.361C83.1636 28.836 84.0513 29.0774 85.0168 29.0774C85.7098 29.0774 86.2549 28.9216 86.6364 28.6102C87.0257 28.2987 87.2204 27.8782 87.2204 27.3565C87.2204 26.8894 87.0569 26.5 86.7454 26.1808C86.4262 25.8615 85.8967 25.5656 85.157 25.2931C83.1247 24.5378 82.1202 23.4399 82.1202 21.9994C82.1202 21.0572 82.4784 20.2863 83.187 19.679C83.8955 19.0794 84.8377 18.7758 86.0135 18.7758C87.0569 18.7758 87.929 18.9548 88.622 19.3208L88.1548 20.8158C87.5007 20.4654 86.7688 20.2864 85.9434 20.2864C85.2971 20.2864 84.7832 20.4499 84.4172 20.7613C84.1136 21.0494 83.9578 21.392 83.9578 21.8047C83.9578 22.2564 84.1369 22.6379 84.4873 22.926C84.791 23.1985 85.3516 23.4944 86.1614 23.8137C87.1503 24.2108 87.8745 24.678 88.3417 25.2152C88.8166 25.7525 89.0502 26.4222 89.0502 27.2164Z" fill="white"/>
<path d="M95.1553 23.5333H93.123V27.559C93.123 28.579 93.4812 29.0929 94.1976 29.0929C94.5246 29.0929 94.7971 29.0618 95.0152 29.0073L95.0697 30.4089C94.7037 30.5412 94.2287 30.6113 93.6369 30.6113C92.905 30.6113 92.3444 30.3855 91.9317 29.9417C91.519 29.4978 91.3165 28.7503 91.3165 27.7069V23.5256H90.1096V22.1473H91.3165V20.629L93.123 20.0839V22.1473H95.1553V23.5333Z" fill="white"/>
<path d="M104.297 26.2272C104.297 27.5042 103.931 28.5476 103.207 29.3652C102.444 30.2061 101.431 30.6266 100.17 30.6266C98.9553 30.6266 97.982 30.2217 97.2579 29.4197C96.5337 28.6177 96.1755 27.5976 96.1755 26.3674C96.1755 25.0826 96.5493 24.0314 97.289 23.2138C98.0365 22.3962 99.041 21.9835 100.302 21.9835C101.517 21.9835 102.498 22.3884 103.238 23.1982C103.947 23.9769 104.297 24.9891 104.297 26.2272ZM102.389 26.2661C102.389 25.503 102.226 24.8568 101.899 24.3117C101.509 23.6498 100.956 23.3228 100.24 23.3228C99.5004 23.3228 98.932 23.6498 98.5504 24.3117C98.2156 24.8568 98.0599 25.5186 98.0599 26.3051C98.0599 27.0681 98.2234 27.7222 98.5504 28.2595C98.9476 28.9213 99.5082 29.2484 100.225 29.2484C100.925 29.2484 101.478 28.9136 101.883 28.2439C102.218 27.6833 102.389 27.0292 102.389 26.2661Z" fill="white"/>
<path d="M110.292 23.7666C110.113 23.7354 109.918 23.7198 109.708 23.7198C109.062 23.7198 108.556 23.9612 108.205 24.4518C107.902 24.88 107.746 25.4329 107.746 26.087V30.4396H105.9V24.7554C105.9 23.7977 105.885 22.9256 105.846 22.147H107.45L107.52 23.7354H107.575C107.769 23.1904 108.073 22.7465 108.493 22.4195C108.906 22.1236 109.35 21.9756 109.825 21.9756C109.996 21.9756 110.152 21.9912 110.284 22.0068L110.292 23.7666Z" fill="white"/>
<path d="M118.53 25.9002C118.53 26.2273 118.507 26.5076 118.46 26.7334H112.932C112.955 27.551 113.22 28.1817 113.734 28.61C114.201 28.9915 114.801 29.1862 115.54 29.1862C116.358 29.1862 117.105 29.0538 117.775 28.7968L118.063 30.0738C117.277 30.4164 116.35 30.5878 115.283 30.5878C113.999 30.5878 112.986 30.2062 112.254 29.4509C111.522 28.6956 111.156 27.6756 111.156 26.4064C111.156 25.1605 111.499 24.1171 112.184 23.284C112.901 22.3963 113.866 21.9525 115.081 21.9525C116.272 21.9525 117.183 22.3963 117.791 23.284C118.281 24.0003 118.53 24.8646 118.53 25.9002ZM116.771 25.4253C116.786 24.8802 116.662 24.4052 116.412 24.0081C116.093 23.4942 115.603 23.2372 114.949 23.2372C114.349 23.2372 113.858 23.4864 113.485 23.9847C113.181 24.3819 112.994 24.8646 112.94 25.4175L116.771 25.4253Z" fill="white"/>
<path d="M55.1015 14.8278H54.136L53.6065 13.1692H51.7689L51.2628 14.8278H50.3284L52.1426 9.17471H53.2639L55.1015 14.8278ZM53.443 12.4684L52.968 10.989C52.9213 10.841 52.8279 10.4829 52.6799 9.92222H52.6643C52.602 10.1636 52.5242 10.514 52.3918 10.989L51.9246 12.4684H53.443Z" fill="white"/>
<path d="M59.6483 10.7476L58.1066 14.8278H57.2267L55.7317 10.7476H56.705L57.398 12.9045C57.5148 13.2627 57.616 13.6053 57.6939 13.9323H57.7173C57.7873 13.6364 57.8886 13.2938 58.0132 12.9045L58.6984 10.7476H59.6483Z" fill="white"/>
<path d="M62.9342 14.8277L62.8641 14.3605H62.8408C62.5604 14.7343 62.1633 14.9211 61.6494 14.9211C60.9175 14.9211 60.4036 14.4072 60.4036 13.722C60.4036 12.7175 61.2757 12.1958 62.7863 12.1958V12.118C62.7863 11.5807 62.4981 11.316 61.9375 11.316C61.5326 11.316 61.1822 11.4172 60.8708 11.6196L60.6839 11.0279C61.0576 10.7943 61.5326 10.6775 62.0855 10.6775C63.1522 10.6775 63.6895 11.2381 63.6895 12.3671V13.87C63.6895 14.2826 63.7051 14.6019 63.7518 14.8433L62.9342 14.8277ZM62.8096 12.7954C61.8051 12.7954 61.299 13.0368 61.299 13.6208C61.299 14.049 61.556 14.2593 61.9219 14.2593C62.3814 14.2593 62.8096 13.9089 62.8096 13.4261V12.7954Z" fill="white"/>
<path d="M65.7067 10.0779C65.403 10.0779 65.1694 9.84428 65.1694 9.53282C65.1694 9.22135 65.4108 8.99554 65.7223 8.99554C66.0337 8.99554 66.2829 9.22135 66.2751 9.53282C66.2751 9.85985 66.0415 10.0779 65.7067 10.0779ZM65.2707 10.7475H66.1739V14.8199H65.2707V10.7475Z" fill="white"/>
<path d="M67.7854 8.87869H68.6886V14.8198H67.7854V8.87869Z" fill="white"/>
<path d="M72.5353 14.8279L72.4652 14.3607H72.4418C72.1615 14.7344 71.7644 14.9213 71.2505 14.9213C70.5186 14.9213 70.0046 14.4074 70.0046 13.7222C70.0046 12.7177 70.8767 12.196 72.3873 12.196V12.1182C72.3873 11.5809 72.0992 11.3161 71.5386 11.3161C71.1337 11.3161 70.7833 11.4174 70.4718 11.6198L70.285 11.0203C70.6587 10.7867 71.1337 10.6699 71.6865 10.6699C72.7533 10.6699 73.2906 11.2305 73.2906 12.3595V13.8624C73.2906 14.275 73.3061 14.5943 73.3451 14.8357H72.5353V14.8279ZM72.4107 12.7956C71.4062 12.7956 70.9001 13.037 70.9001 13.621C70.9001 14.0492 71.1571 14.2595 71.523 14.2595C71.9824 14.2595 72.4107 13.9091 72.4107 13.4263V12.7956Z" fill="white"/>
<path d="M76.9653 14.9211C76.3891 14.9211 75.9609 14.6797 75.6805 14.1969H75.665L75.6105 14.8276H74.8396C74.863 14.5006 74.8707 14.1346 74.8707 13.7297V8.87869H75.7818V11.347H75.7973C76.0699 10.8954 76.4981 10.6696 77.0977 10.6696C78.0788 10.6696 78.764 11.5106 78.764 12.733C78.764 13.9945 78.0009 14.9211 76.9653 14.9211ZM76.7785 11.3782C76.2568 11.3782 75.7818 11.8298 75.7818 12.4605V13.1769C75.7818 13.7375 76.21 14.1969 76.7629 14.1969C77.4403 14.1969 77.8452 13.6441 77.8452 12.7642C77.8452 11.9388 77.4247 11.3782 76.7785 11.3782Z" fill="white"/>
<path d="M80.1038 8.87869H81.007V14.8198H80.1038V8.87869Z" fill="white"/>
<path d="M85.9356 13.0058H83.218C83.2336 13.7766 83.7475 14.2127 84.5028 14.2127C84.9077 14.2127 85.2737 14.1426 85.6007 14.018L85.7409 14.6487C85.3593 14.82 84.9077 14.8979 84.3782 14.8979C83.1012 14.8979 82.3459 14.0959 82.3459 12.8423C82.3459 11.5964 83.1168 10.6542 84.277 10.6542C85.3126 10.6542 85.9745 11.4251 85.9745 12.5931C85.9745 12.7566 85.9667 12.8968 85.9356 13.0058ZM85.1102 12.3595C85.1102 11.7288 84.7909 11.2849 84.2147 11.2849C83.693 11.2849 83.2881 11.7366 83.2258 12.3595H85.1102Z" fill="white"/>
<path d="M91.4251 14.9213C90.2338 14.9213 89.4629 14.0337 89.4629 12.8267C89.4629 11.5653 90.2493 10.6699 91.4952 10.6699C92.671 10.6699 93.4574 11.5186 93.4574 12.7567C93.4574 14.0259 92.6476 14.9213 91.4251 14.9213ZM91.464 11.3317C90.81 11.3317 90.3895 11.9469 90.3895 12.7956C90.3895 13.6365 90.8178 14.2439 91.4563 14.2439C92.0948 14.2439 92.523 13.5898 92.523 12.7722C92.5152 11.9469 92.1025 11.3317 91.464 11.3317Z" fill="white"/>
<path d="M98.3241 14.8278H97.4208V12.484C97.4208 11.7599 97.1405 11.4017 96.5954 11.4017C96.0582 11.4017 95.6922 11.8611 95.6922 12.3984V14.82H94.789V11.9156C94.789 11.5574 94.7812 11.1681 94.7578 10.7476H95.552L95.591 11.3784H95.6143C95.8557 10.9423 96.3541 10.662 96.9069 10.662C97.7634 10.662 98.3241 11.3161 98.3241 12.3828V14.8278Z" fill="white"/>
<path d="M104.25 11.4329H103.253V13.4106C103.253 13.9168 103.432 14.1659 103.782 14.1659C103.938 14.1659 104.078 14.1504 104.187 14.127L104.211 14.8122C104.032 14.8823 103.798 14.9134 103.51 14.9134C102.794 14.9134 102.373 14.5163 102.373 13.4885V11.4329H101.781V10.7554H102.373V10.0079L103.261 9.73538V10.7476H104.257V11.4329" fill="white"/>
<path d="M109.047 14.8276H108.143V12.4994C108.143 11.7675 107.863 11.4015 107.318 11.4015C106.851 11.4015 106.415 11.7208 106.415 12.3671V14.8198H105.511V8.87869H106.415V11.3237H106.43C106.718 10.8798 107.123 10.6618 107.653 10.6618C108.517 10.6618 109.047 11.3315 109.047 12.3982V14.8276Z" fill="white"/>
<path d="M113.672 13.0058H110.954C110.97 13.7766 111.484 14.2127 112.239 14.2127C112.644 14.2127 113.01 14.1426 113.337 14.018L113.477 14.6487C113.096 14.82 112.644 14.8979 112.115 14.8979C110.838 14.8979 110.082 14.0959 110.082 12.8423C110.082 11.5964 110.853 10.6542 112.013 10.6542C113.049 10.6542 113.711 11.4251 113.711 12.5931C113.711 12.7566 113.703 12.8968 113.672 13.0058ZM112.847 12.3595C112.847 11.7288 112.527 11.2849 111.951 11.2849C111.429 11.2849 111.017 11.7366 110.962 12.3595H112.847Z" fill="white"/>
</svg>
