<svg width="140" height="42" viewBox="0 0 140 42" fill="none" xmlns="http://www.w3.org/2000/svg">
<path d="M134.017 41.2715H5.25168C2.41888 41.2715 0.101074 38.9499 0.101074 36.1125V5.15895C0.101074 2.32152 2.41883 0 5.25168 0H134.017C136.85 0 139.167 2.32152 139.167 5.15895V36.1125C139.167 38.9499 136.85 41.2715 134.017 41.2715" fill="black"/>
<path d="M134.017 0H5.25168C2.41888 0 0.101074 2.32152 0.101074 5.15895V36.1125C0.101074 38.9499 2.41883 41.2715 5.25168 41.2715H134.017C136.85 41.2715 139.167 38.9499 139.167 36.1125V5.15895C139.167 2.32152 136.85 0 134.017 0H134.017ZM134.017 0.825403C136.402 0.825403 138.343 2.76974 138.343 5.15895V36.1125C138.343 38.5022 136.402 40.4465 134.017 40.4465H5.25168C2.86636 40.4465 0.925179 38.5021 0.925179 36.1125V5.15895C0.925179 2.76974 2.86631 0.825449 5.25168 0.825449H134.017" fill="#A6A6A6"/>
<path d="M48.9477 10.569C48.9477 11.4334 48.6921 12.1218 48.1802 12.6353C47.5988 13.2459 46.841 13.5515 45.9095 13.5515C45.0174 13.5515 44.2589 13.242 43.6352 12.622C43.0103 12.0026 42.6985 11.2344 42.6985 10.3179C42.6985 9.40091 43.0103 8.63319 43.6352 8.01321C44.2589 7.39379 45.0174 7.0838 45.9095 7.0838C46.3521 7.0838 46.7759 7.17051 47.1783 7.34343C47.5807 7.51677 47.9034 7.74686 48.1448 8.03501L47.6016 8.5795C47.1924 8.08982 46.629 7.84517 45.9095 7.84517C45.2589 7.84517 44.6963 8.07415 44.2215 8.53238C43.7467 8.99108 43.5093 9.58593 43.5093 10.3179C43.5093 11.0498 43.7467 11.6446 44.2215 12.1034C44.6963 12.5616 45.2589 12.7905 45.9095 12.7905C46.5997 12.7905 47.1751 12.5603 47.6358 12.0993C47.9348 11.799 48.1078 11.3815 48.154 10.8454H45.9094V10.1018H48.9045C48.9335 10.2635 48.9476 10.4187 48.9476 10.569" fill="white"/>
<path d="M48.9476 10.5691H48.8445C48.8437 11.4138 48.5974 12.0699 48.1072 12.5625L48.1062 12.5633L48.1057 12.5641C47.5428 13.1537 46.8192 13.4471 45.9094 13.4484C45.0411 13.4471 44.3143 13.1505 43.7075 12.5492C43.102 11.9466 42.8026 11.211 42.8014 10.3179C42.8026 9.42442 43.102 8.68925 43.7075 8.08713C44.3143 7.48537 45.0411 7.18832 45.9094 7.18706C46.3388 7.18706 46.7476 7.271 47.1375 7.43821C47.5278 7.60672 47.8361 7.82754 48.0658 8.10169L48.1447 8.0351L48.0719 7.96216L47.5286 8.50701L47.6014 8.57958L47.6808 8.51355C47.2525 7.99962 46.6515 7.74055 45.9094 7.74208C45.2347 7.74124 44.6411 7.98274 44.1501 8.45837C43.6544 8.93553 43.4054 9.56385 43.4062 10.3179C43.4054 11.0721 43.6544 11.7003 44.1501 12.1776C44.6411 12.6532 45.2347 12.8946 45.9094 12.8938C46.6224 12.8951 47.2301 12.6528 47.7085 12.1724C48.028 11.8515 48.2091 11.407 48.2566 10.8544L48.2662 10.7423H46.0124V10.2051H48.9045V10.1019L48.803 10.12C48.8312 10.2765 48.8445 10.4251 48.8445 10.5691H49.0505C49.0505 10.4123 49.036 10.2511 49.0058 10.0834L48.9906 9.99872H45.8064V10.9487H48.1539V10.8455L48.0514 10.8366C48.0059 11.3558 47.8409 11.7468 47.5629 12.0265C47.1202 12.4682 46.577 12.6862 45.9094 12.6874C45.2829 12.6866 44.7514 12.4706 44.2931 12.0293C43.8392 11.5895 43.6134 11.0281 43.6122 10.3179C43.6134 9.60777 43.8392 9.04636 44.2931 8.60662C44.7514 8.16531 45.2829 7.94926 45.9094 7.94843C46.606 7.9501 47.132 8.18061 47.5227 8.64613L47.5951 8.73238L48.2176 8.10808L48.2844 8.04122L48.2236 7.96897C47.9705 7.66677 47.6333 7.4269 47.2188 7.24883C46.8036 7.07021 46.3654 6.98071 45.9094 6.98071C44.9936 6.97993 44.2033 7.30234 43.5623 7.94041C42.9189 8.57722 42.5946 9.37768 42.5955 10.3179C42.5946 11.2578 42.9189 12.0587 43.5627 12.6959C44.2033 13.3335 44.9936 13.6556 45.9094 13.6547C46.8631 13.6556 47.6543 13.3383 48.2546 12.7067L48.1801 12.6354L48.2529 12.7084C48.7865 12.1744 49.0513 11.4529 49.0506 10.5691H48.9475H48.9476ZM53.6957 7.98312H50.881V9.946H53.4193V10.6899H50.881V12.6528H53.6957V13.4133H50.0875V7.22259H53.6957V7.98312Z" fill="white"/>
<path d="M53.6956 7.98303V7.87985H50.7779V10.0491H53.3162V10.5863L50.7778 10.5866V12.7559H53.5925V13.31H50.1904V7.32567H53.5925V7.98303H53.6956V7.87985V7.98303H53.7986V7.11932H49.9844V13.5164H53.7986V12.5495H50.9839V10.793H53.5222V9.84274H50.9839V8.0862H53.7986V7.98303H53.6956ZM57.0447 13.4133H56.25V7.98298H54.5237V7.22245H58.771V7.98298H57.0447V13.4132" fill="white"/>
<path d="M57.0449 13.4133V13.31H56.3532V7.87985H54.6269V7.32572H58.6682V7.87985H56.9419V13.4132H57.0449V13.31V13.4132H57.1479V8.0862H58.8742V7.11932H54.4209V8.08616H56.1471V13.5163H57.1479V13.4132H57.0449V13.4133ZM61.8442 13.4133V7.22245H62.6382V13.4132H61.8442" fill="white"/>
<path d="M61.8444 13.4133H61.9475V7.32567H62.5353V13.31H61.8444V13.4132H61.9475H61.8444V13.5164H62.7414V7.11932H61.7415V13.5164H61.8444V13.4132V13.4133ZM66.1613 13.4133H65.3666V7.98298H63.6403V7.22245H67.8876V7.98298H66.1613V13.4132" fill="white"/>
<path d="M66.161 13.4133V13.31H65.4693V7.87985H63.7431V7.32572H67.7843V7.87985H66.058V13.4132H66.161V13.31V13.4132H66.264V8.0862H67.9903V7.11932H63.5371V8.08616H65.2633V13.5163H66.264V13.4132H66.161V13.4133ZM71.982 12.0949C72.4395 12.5588 72.9993 12.7905 73.6612 12.7905C74.3232 12.7905 74.8832 12.5588 75.34 12.0949C75.7979 11.631 76.0273 11.038 76.0273 10.3179C76.0273 9.59771 75.7979 9.00472 75.34 8.54082C74.8832 8.07693 74.3232 7.84517 73.6612 7.84517C72.9993 7.84517 72.4395 8.07693 71.982 8.54082C71.5253 9.00472 71.296 9.59766 71.296 10.3179C71.296 11.038 71.5253 11.631 71.982 12.0949ZM75.9275 12.6132C75.3198 13.239 74.5642 13.5515 73.6612 13.5515C72.7574 13.5515 72.0021 13.239 71.3958 12.6132C70.7877 11.988 70.4851 11.2227 70.4851 10.3179C70.4851 9.41297 70.7877 8.64757 71.3958 8.02253C72.0021 7.39653 72.7574 7.0838 73.6612 7.0838C74.5594 7.0838 75.313 7.3982 75.9235 8.02657C76.5331 8.6549 76.8381 9.41862 76.8381 10.3179C76.8381 11.2227 76.5338 11.988 75.9275 12.6132Z" fill="white"/>
<path d="M71.9822 12.095L71.909 12.1675C72.3834 12.65 72.9753 12.8951 73.6614 12.8938C74.347 12.8951 74.9398 12.65 75.4134 12.1675C75.891 11.6846 76.1312 11.0599 76.1305 10.3179C76.1312 9.57601 75.891 8.95125 75.4134 8.46834C74.9398 7.9859 74.347 7.74087 73.6614 7.74208C72.9753 7.74087 72.3834 7.9859 71.909 8.46834C71.4325 8.95125 71.1919 9.57601 71.1931 10.3179C71.1919 11.0599 71.4325 11.6846 71.909 12.1675L71.9822 12.095L72.0555 12.0224C71.6185 11.5771 71.4 11.0168 71.3991 10.3179C71.4 9.61913 71.6185 9.05888 72.0554 8.61344C72.4964 8.16814 73.0232 7.94968 73.6614 7.94848C74.2991 7.94968 74.8271 8.16814 75.2669 8.61344C75.7047 9.05888 75.9232 9.61913 75.924 10.3179C75.9232 11.0168 75.7047 11.5771 75.2669 12.0224C74.8271 12.4678 74.2992 12.6862 73.6614 12.6874C73.0232 12.6862 72.4964 12.4678 72.0554 12.0224L71.9822 12.095ZM75.9276 12.6133L75.854 12.5416C75.2633 13.1477 74.541 13.4472 73.6614 13.4484C72.7814 13.4471 72.0591 13.1477 71.4695 12.5416L71.4667 12.5383L71.4695 12.5416C70.8801 11.9333 70.5892 11.1998 70.5884 10.3179C70.5892 9.43606 70.8801 8.70256 71.4695 8.09436C72.0591 7.48815 72.7813 7.18832 73.6614 7.18711C74.5354 7.18832 75.256 7.4894 75.85 8.09877C76.4415 8.7098 76.734 9.44213 76.7353 10.3179C76.734 11.1998 76.4423 11.9333 75.854 12.5416L75.9276 12.6133L76.0017 12.6849C76.6262 12.0426 76.942 11.2457 76.9413 10.3179C76.9421 9.39544 76.625 8.60022 75.9976 7.95497C75.3699 7.30717 74.5837 6.9796 73.6614 6.98072C72.7343 6.9796 71.9456 7.30564 71.3219 7.95094V7.95047C70.6962 8.59331 70.3815 9.39015 70.3823 10.3179C70.3815 11.2457 70.6962 12.0426 71.3219 12.6854L71.3247 12.6883L71.3219 12.6849C71.9456 13.3302 72.7343 13.6556 73.6614 13.6547C74.5881 13.6556 75.3768 13.3302 76.0017 12.6849L75.9276 12.6133ZM77.9528 13.4133V7.22254H78.9194L81.9233 12.0385H81.9575L81.9233 10.8455V7.22254H82.718V13.4132H81.889L78.7464 8.36391H78.7122L78.7464 9.55736V13.4132H77.9529" fill="white"/>
<path d="M77.9527 13.4133H78.0557V7.32567H78.8621L81.8659 12.1416H82.0631L82.0261 10.8439V7.32572H82.6148V13.31H81.946L78.8034 8.2607H78.6062L78.6432 9.55899V13.31H77.9527V13.4132H78.0557H77.9527V13.5164H78.8492V9.5557L78.815 8.36109L78.712 8.36387V8.46705H78.7462V8.36387L78.6588 8.41873L81.8317 13.5164H82.8208V7.11932H81.8201V10.8466L81.8543 12.0412L81.9573 12.0384V11.9353H81.9231V12.0384L82.0104 11.9837L78.9763 7.11932H77.8497V13.5164H77.9528V13.4132L77.9527 13.4133ZM110.258 30.9536H112.18V18.055H110.258L110.258 30.9536ZM127.571 22.7014L125.368 28.2936H125.302L123.015 22.7014H120.944L124.374 30.5175L122.418 34.8651H124.424L129.709 22.7014L127.571 22.7014ZM116.67 29.4886C116.04 29.4886 115.162 29.1734 115.162 28.3931C115.162 27.3975 116.256 27.0159 117.2 27.0159C118.046 27.0159 118.442 27.1984 118.956 27.4476C118.807 28.6422 117.78 29.4886 116.67 29.4886ZM116.902 22.4192C115.51 22.4192 114.069 23.0334 113.473 24.3941L115.179 25.1075C115.543 24.3941 116.222 24.1615 116.935 24.1615C117.929 24.1615 118.94 24.7593 118.956 25.8213V25.9539C118.608 25.7547 117.863 25.4561 116.952 25.4561C115.113 25.4561 113.24 26.4681 113.24 28.36C113.24 30.0859 114.748 31.1978 116.438 31.1978C117.73 31.1978 118.442 30.617 118.89 29.9368H118.956V30.9322H120.811V25.9869C120.811 23.6973 119.106 22.4192 116.902 22.4192ZM105.023 24.2715H102.289V19.8502H105.023C106.46 19.8502 107.276 21.042 107.276 22.0608C107.276 23.0604 106.46 24.2715 105.023 24.2715ZM104.973 18.055H100.368V30.9536H102.289V26.0667H104.973C107.104 26.0667 109.198 24.5218 109.198 22.0608C109.198 19.5999 107.104 18.055 104.973 18.055ZM79.858 29.4909C78.5301 29.4909 77.4183 28.3773 77.4183 26.8478C77.4183 25.3022 78.5301 24.1716 79.858 24.1716C81.169 24.1716 82.1979 25.3022 82.1979 26.8478C82.1979 28.3773 81.169 29.4909 79.858 29.4909H79.858ZM82.0651 23.4236H81.9987C81.5674 22.9084 80.7372 22.443 79.6919 22.443C77.5012 22.443 75.4933 24.3711 75.4933 26.8478C75.4933 29.308 77.5011 31.2196 79.6919 31.2196C80.7372 31.2196 81.5674 30.754 81.9987 30.2224H82.0651V30.854C82.0651 32.5332 81.169 33.4307 79.7252 33.4307C78.547 33.4307 77.8167 32.5827 77.5177 31.8681L75.8418 32.5662C76.3231 33.7297 77.601 35.1594 79.7252 35.1594C81.9822 35.1594 83.8907 33.8293 83.8907 30.588V22.709H82.0651V23.4236ZM85.2183 30.9536H87.1433V18.0546H85.2183V30.9536ZM89.9813 26.6983C89.9314 25.0027 91.2923 24.1385 92.2714 24.1385C93.0353 24.1385 93.6822 24.5206 93.8975 25.0697L89.9813 26.6983ZM95.9557 25.2356C95.591 24.2546 94.4785 22.443 92.2049 22.443C89.948 22.443 88.0728 24.2216 88.0728 26.8313C88.0728 29.2915 89.9314 31.2196 92.4206 31.2196C94.4291 31.2196 95.591 29.9895 96.0721 29.2749L94.5784 28.2773C94.0809 29.0089 93.4 29.4909 92.4206 29.4909C91.4416 29.4909 90.7447 29.042 90.2964 28.1613L96.1545 25.7342L95.9557 25.2356ZM49.2828 23.7895V25.6512H53.7303C53.5976 26.6983 53.249 27.4629 52.7179 27.9948C52.0709 28.6433 51.0585 29.358 49.2828 29.358C46.5444 29.358 44.4037 27.1472 44.4037 24.4045C44.4037 21.6619 46.5444 19.4508 49.2828 19.4508C50.7599 19.4508 51.8383 20.0328 52.635 20.7808L53.946 19.4677C52.8343 18.4036 51.3571 17.5892 49.2828 17.5892C45.532 17.5892 42.3789 20.6478 42.3789 24.4045C42.3789 28.1613 45.532 31.2196 49.2828 31.2196C51.3076 31.2196 52.8343 30.555 54.029 29.308C55.2571 28.0779 55.639 26.3493 55.639 24.9531C55.639 24.5206 55.6059 24.122 55.5391 23.7895H49.2828ZM60.6954 29.4909C59.3675 29.4909 58.2223 28.3938 58.2223 26.8313C58.2223 25.2521 59.3675 24.1716 60.6954 24.1716C62.0228 24.1716 63.168 25.2521 63.168 26.8313C63.168 28.3939 62.0228 29.4909 60.6954 29.4909ZM60.6954 22.443C58.2721 22.443 56.2972 24.288 56.2972 26.8313C56.2972 29.358 58.2721 31.2196 60.6954 31.2196C63.1181 31.2196 65.0931 29.358 65.0931 26.8313C65.0931 24.288 63.1181 22.443 60.6954 22.443ZM70.2891 29.4909C68.9617 29.4909 67.8164 28.3938 67.8164 26.8313C67.8164 25.2521 68.9617 24.1716 70.2891 24.1716C71.6166 24.1716 72.7618 25.2521 72.7618 26.8313C72.7618 28.3939 71.6166 29.4909 70.2891 29.4909H70.2891ZM70.2891 22.443C67.866 22.443 65.8914 24.288 65.8914 26.8313C65.8914 29.358 67.866 31.2196 70.2891 31.2196C72.712 31.2196 74.6869 29.358 74.6869 26.8313C74.6869 24.288 72.712 22.443 70.2891 22.443H70.2891Z" fill="white"/>
<path d="M10.9263 7.85331C10.5806 8.16571 10.3743 8.68678 10.3743 9.37845V9.22209V32.0463V31.896C10.3743 32.5348 10.5513 33.0281 10.851 33.3457L10.9275 33.4191V33.4194C11.1701 33.6387 11.4812 33.7551 11.8378 33.7548C12.1862 33.7548 12.5781 33.6435 12.9918 33.4086L27.9442 24.8992L33.0803 21.9759C33.7326 21.6048 34.0988 21.1259 34.16 20.6382V20.6362C34.0988 20.1474 33.7326 19.6689 33.0803 19.2977L27.9438 16.3748L12.9919 7.86537C12.5773 7.63003 12.1851 7.51837 11.8357 7.51837C11.4796 7.51837 11.1689 7.63444 10.9264 7.85331H10.9263Z" fill="#00C1FF"/>
<path d="M10.9276 33.419L10.851 33.3457C10.5513 33.028 10.3743 32.5347 10.3743 31.8959V32.0463V9.22768V9.37838C10.3743 8.68672 10.5806 8.16565 10.9263 7.85325L23.6893 20.6366L10.9276 33.419Z" fill="url(#paint0_linear_314_366)"/>
<path d="M27.9436 24.8991L23.6887 20.6366L27.9433 16.3748L33.0797 19.2976C33.732 19.6689 34.0982 20.1473 34.1594 20.6362V20.6381C34.0982 21.1259 33.732 21.6047 33.0797 21.9758L27.9437 24.8991" fill="url(#paint1_linear_314_366)"/>
<path d="M11.8379 33.7547C11.4814 33.755 11.1703 33.6385 10.9277 33.4193V33.419L23.6895 20.6365L27.9444 24.899L12.9919 33.4085C12.5783 33.6435 12.1863 33.7547 11.8379 33.7547Z" fill="url(#paint2_linear_314_366)"/>
<path d="M23.6893 20.6365L10.9263 7.85322C11.1689 7.63435 11.4796 7.51828 11.8357 7.51828C12.185 7.51828 12.5773 7.6299 12.9918 7.86528L27.9438 16.3747L23.6893 20.6365" fill="url(#paint3_linear_314_366)"/>
<path d="M11.8382 33.9059C11.4817 33.9059 11.1702 33.7895 10.9275 33.5702L10.9271 33.5706C10.9261 33.5696 10.9251 33.5687 10.9239 33.5678L10.8576 33.5029C10.8555 33.5008 10.8535 33.4985 10.8511 33.4961L10.9276 33.4195C11.1702 33.6387 11.4813 33.7552 11.8378 33.7548C12.1862 33.7548 12.5782 33.6436 12.9918 33.4086L27.9442 24.8992L28.04 24.9952L27.943 25.0503L12.9918 33.5593C12.6148 33.7734 12.2562 33.885 11.9323 33.9036C11.901 33.9051 11.8696 33.9059 11.8382 33.9059" fill="url(#paint4_linear_314_366)"/>
<path d="M10.851 33.4959C10.5513 33.1783 10.3743 32.6854 10.3743 32.0462V31.8959C10.3743 32.5346 10.5513 33.0279 10.851 33.3456L10.9275 33.419L10.851 33.4959Z" fill="url(#paint5_linear_314_366)"/>
<path d="M28.0397 24.9949L27.9438 24.8989L33.0799 21.9757C33.7322 21.6046 34.0984 21.1257 34.1596 20.638C34.1596 20.817 34.1197 20.9959 34.0405 21.1701C33.8807 21.5211 33.5605 21.8528 33.0799 22.1264L28.0397 24.9949" fill="url(#paint6_linear_314_366)"/>
<path d="M34.1593 20.6361C34.0981 20.1472 33.7319 19.6688 33.0796 19.2976L27.9431 16.3747L28.0389 16.2787H28.0393L33.0796 19.1472C33.7987 19.5567 34.1589 20.0964 34.1593 20.6361Z" fill="url(#paint7_linear_314_366)"/>
<path d="M10.3743 9.37845V9.22079C10.3743 9.16394 10.3758 9.10834 10.3787 9.05436V9.0519C10.3787 9.05116 10.3787 9.05037 10.379 9.04954V9.04346C10.41 8.49327 10.5806 8.06411 10.851 7.77754L10.9263 7.85326C10.5806 8.16571 10.3743 8.68678 10.3743 9.37845Z" fill="url(#paint8_linear_314_366)"/>
<path d="M27.9436 16.3749L12.9916 7.86541C12.5771 7.63007 12.1848 7.51846 11.8355 7.51846C11.4794 7.51846 11.1687 7.63453 10.9261 7.8534L10.8508 7.77763C10.8743 7.75269 10.8988 7.72864 10.9241 7.70552C10.9249 7.70469 10.9261 7.70385 10.9269 7.70306C11.1676 7.48586 11.475 7.36979 11.8279 7.36771H11.8355C12.1848 7.36771 12.5771 7.47937 12.9916 7.71479L28.0398 16.2786L28.0394 16.279L27.9436 16.3749Z" fill="url(#paint9_linear_314_366)"/>
<defs>
<linearGradient id="paint0_linear_314_366" x1="18.5306" y1="8.98651" x2="7.53175" y2="20.0031" gradientUnits="userSpaceOnUse">
<stop stop-color="#00A0FF"/>
<stop offset="0.00657" stop-color="#00A1FF"/>
<stop offset="0.2601" stop-color="#00BEFF"/>
<stop offset="0.5122" stop-color="#00D2FF"/>
<stop offset="0.7604" stop-color="#00DFFF"/>
<stop offset="1" stop-color="#00E3FF"/>
</linearGradient>
<linearGradient id="paint1_linear_314_366" x1="34.9541" y1="20.5629" x2="10.0283" y2="20.5629" gradientUnits="userSpaceOnUse">
<stop stop-color="#FFE000"/>
<stop offset="0.4087" stop-color="#FFBD00"/>
<stop offset="0.7754" stop-color="#FFA500"/>
<stop offset="1" stop-color="#FF9C00"/>
</linearGradient>
<linearGradient id="paint2_linear_314_366" x1="25.6854" y1="24.6891" x2="7.04704" y2="43.2212" gradientUnits="userSpaceOnUse">
<stop stop-color="#FF3A44"/>
<stop offset="1" stop-color="#C31162"/>
</linearGradient>
<linearGradient id="paint3_linear_314_366" x1="7.63688" y1="5.95803" x2="15.9436" y2="14.2301" gradientUnits="userSpaceOnUse">
<stop stop-color="#32A071"/>
<stop offset="0.0685" stop-color="#2DA771"/>
<stop offset="0.4762" stop-color="#15CF74"/>
<stop offset="0.8009" stop-color="#06E775"/>
<stop offset="1" stop-color="#00F076"/>
</linearGradient>
<linearGradient id="paint4_linear_314_366" x1="25.676" y1="27.646" x2="10.7495" y2="42.5967" gradientUnits="userSpaceOnUse">
<stop stop-color="#CC2E36"/>
<stop offset="1" stop-color="#9C0E4E"/>
</linearGradient>
<linearGradient id="paint5_linear_314_366" x1="12.0745" y1="8.9864" x2="2.38466" y2="18.692" gradientUnits="userSpaceOnUse">
<stop stop-color="#008DE0"/>
<stop offset="0.00657" stop-color="#008DE0"/>
<stop offset="0.2601" stop-color="#00A7E0"/>
<stop offset="0.5122" stop-color="#00B8E0"/>
<stop offset="0.7604" stop-color="#00C4E0"/>
<stop offset="1" stop-color="#00C7E0"/>
</linearGradient>
<linearGradient id="paint6_linear_314_366" x1="34.9544" y1="20.637" x2="10.0285" y2="20.637" gradientUnits="userSpaceOnUse">
<stop stop-color="#E0C500"/>
<stop offset="0.4087" stop-color="#E0A600"/>
<stop offset="0.7754" stop-color="#E09100"/>
<stop offset="1" stop-color="#E08900"/>
</linearGradient>
<linearGradient id="paint7_linear_314_366" x1="34.954" y1="20.6371" x2="10.0282" y2="20.6371" gradientUnits="userSpaceOnUse">
<stop stop-color="#FFE840"/>
<stop offset="0.4087" stop-color="#FFCE40"/>
<stop offset="0.7754" stop-color="#FFBC40"/>
<stop offset="1" stop-color="#FFB540"/>
</linearGradient>
<linearGradient id="paint8_linear_314_366" x1="12.064" y1="9.0041" x2="2.73096" y2="17.9472" gradientUnits="userSpaceOnUse">
<stop stop-color="#40B8FF"/>
<stop offset="0.00657" stop-color="#40B9FF"/>
<stop offset="0.2601" stop-color="#40CEFF"/>
<stop offset="0.5122" stop-color="#40DDFF"/>
<stop offset="0.7604" stop-color="#40E7FF"/>
<stop offset="1" stop-color="#40EAFF"/>
</linearGradient>
<linearGradient id="paint9_linear_314_366" x1="7.6181" y1="8.66164" x2="14.2835" y2="15.3378" gradientUnits="userSpaceOnUse">
<stop stop-color="#65B895"/>
<stop offset="0.0685" stop-color="#62BD95"/>
<stop offset="0.4762" stop-color="#50DB97"/>
<stop offset="0.8009" stop-color="#44ED98"/>
<stop offset="1" stop-color="#40F498"/>
</linearGradient>
</defs>
</svg>
